<svg xmlns="http://www.w3.org/2000/svg" viewBox="0 0 900 300" width="900" height="300" role="img" aria-label="isometric contribution garden with a cow-cat on top">
<title>contribution garden — yunc-star</title>
<style>
:root{
--bg:#F0EEE6; --ink:#1F1E1D; --muted:#7D7A6F;
--cat:#FFFFFF; --catsh:#E9E5DA; --patch:#2E2A26;
--pink:#E8938C; --blush:#F2B3A8;
--yarn:#E8837E; --yarnd:#C96058; --heart:#E06253; --spark:#E3A93C;
--grass1:#A4C88B; --grass2:#8CB271; --tuft:#79A15E;
--shadow:rgba(40,38,35,.18); --cell:#E4E1D4;
--g1:#9BE9A8; --g2:#40C463; --g3:#30A14E; --g4:#216E39;
--sky:#FFFFFF; --star:#D8D4C6;

--t1:#9BE9A8; --l1:#82C48D; --r1:#699E72;
--t2:#40C463; --l2:#36A553; --r2:#2C8543;
--t3:#30A14E; --l3:#288740; --r3:#206B33;
--t4:#216E39; --l4:#1C5D30; --r4:#164A26;
}
@media (prefers-color-scheme:dark){
:root{
--bg:#262624; --ink:#F0EEE6; --muted:#8F8D85;
--cat:#F2F0E9; --catsh:#DCD9CE; --patch:#26231F;
--pink:#E8938C; --blush:#E89A8B;
--yarn:#E8837E; --yarnd:#C96058; --heart:#E4685A; --spark:#E9B84C;
--grass1:#43603F; --grass2:#374F34; --tuft:#54774E;
--shadow:rgba(0,0,0,.4); --cell:#34332F;
--g1:#0E4429; --g2:#006D32; --g3:#26A641; --g4:#39D353;
--sky:#3A3937; --star:#8F8D85;

--t1:#0E4429; --l1:#0B3721; --r1:#092C1B;
--t2:#006D32; --l2:#005C2A; --r2:#004A22;
--t3:#26A641; --l3:#208B37; --r3:#19702C;
--t4:#39D353; --l4:#30B246; --r4:#268F38;
}
}

.mono{font-family:ui-monospace,'SF Mono',Menlo,Consolas,'Liberation Mono',monospace}
.oc{transform-box:fill-box;transform-origin:50% 50%}
.ob{transform-box:fill-box;transform-origin:50% 100%}
.tailo{transform-box:fill-box;transform-origin:92% 88%}
.pawo{transform-box:fill-box;transform-origin:50% 8%}

.gw{animation:grow .55s cubic-bezier(.34,1.4,.5,1) both}
@keyframes grow{from{transform:scaleY(0)}to{transform:scaleY(1)}}
.gwf{animation:fadeT .5s ease-out both}
@keyframes fadeT{from{opacity:0}to{opacity:1}}
.fin{animation:finK .6s ease-out both}
@keyframes finK{from{opacity:0;transform:translateY(8px)}to{opacity:1;transform:translateY(0)}}
.shim{animation:shimK 3.2s ease-in-out infinite}
@keyframes shimK{0%,100%{opacity:1}50%{opacity:.75}}
.tail{animation:tailSw 2.4s ease-in-out infinite alternate}
@keyframes tailSw{from{transform:rotate(-8deg)}to{transform:rotate(10deg)}}
.blinkg{animation:blinkK 4.6s linear infinite}
@keyframes blinkK{0%,91%{transform:scaleY(1)}93%,95%{transform:scaleY(.12)}97%,100%{transform:scaleY(1)}}
.hg{animation:hgK 7s linear infinite}
@keyframes hgK{0%,74%{opacity:0;transform:translateY(4px) scale(.4)}78%{opacity:1;transform:translateY(0) scale(1)}90%{opacity:.9;transform:translateY(-12px) scale(1)}100%{opacity:0;transform:translateY(-18px) scale(1)}}
.tw1{animation:tw 3.4s ease-in-out infinite}
.tw2{animation:tw 3.4s ease-in-out 1.6s infinite}
@keyframes tw{0%,100%{opacity:.25}50%{opacity:1}}
@media (prefers-reduced-motion:reduce){*{animation:none!important}}
</style>
<defs>
<clipPath id="frame"><rect x="0" y="0" width="900" height="300" rx="16"/></clipPath>
<g id="sp4"><rect x="5" y="0" width="4" height="14"/><rect x="0" y="5" width="14" height="4"/></g>
</defs>
<rect x="0" y="0" width="900" height="300" rx="16" fill="var(--bg)"/>
<g clip-path="url(#frame)">

  <ellipse cx="470" cy="222" rx="175" ry="10" fill="var(--shadow)" opacity=".3"/>
  <g class="gwf" style="animation-delay:0.15s"><path d="M386,56 L402,64 L386,72 L370,64 Z" fill="var(--cell)" opacity=".95"/></g>
  <g class="gwf" style="animation-delay:0.20s"><path d="M402,64 L418,72 L402,80 L386,72 Z" fill="var(--cell)" opacity=".7"/></g>
  <g class="gwf" style="animation-delay:0.20s"><path d="M370,64 L386,72 L370,80 L354,72 Z" fill="var(--cell)" opacity=".7"/></g>
  <g class="gwf" style="animation-delay:0.26s"><path d="M418,72 L434,80 L418,88 L402,80 Z" fill="var(--cell)" opacity=".95"/></g>
  <g class="gwf" style="animation-delay:0.26s"><path d="M386,72 L402,80 L386,88 L370,80 Z" fill="var(--cell)" opacity=".95"/></g>
  <g class="gwf" style="animation-delay:0.26s"><path d="M354,72 L370,80 L354,88 L338,80 Z" fill="var(--cell)" opacity=".95"/></g>
  <g class="gwf" style="animation-delay:0.32s"><path d="M434,80 L450,88 L434,96 L418,88 Z" fill="var(--cell)" opacity=".7"/></g>
  <g class="gwf" style="animation-delay:0.32s"><path d="M402,80 L418,88 L402,96 L386,88 Z" fill="var(--cell)" opacity=".7"/></g>
  <g class="gwf" style="animation-delay:0.32s"><path d="M370,80 L386,88 L370,96 L354,88 Z" fill="var(--cell)" opacity=".7"/></g>
  <g class="gwf" style="animation-delay:0.32s"><path d="M338,80 L354,88 L338,96 L322,88 Z" fill="var(--cell)" opacity=".7"/></g>
  <g class="gwf" style="animation-delay:0.37s"><path d="M450,88 L466,96 L450,104 L434,96 Z" fill="var(--cell)" opacity=".95"/></g>
  <g class="gwf" style="animation-delay:0.37s"><path d="M418,88 L434,96 L418,104 L402,96 Z" fill="var(--cell)" opacity=".95"/></g>
  <g class="gwf" style="animation-delay:0.37s"><path d="M386,88 L402,96 L386,104 L370,96 Z" fill="var(--cell)" opacity=".95"/></g>
  <g class="gwf" style="animation-delay:0.37s"><path d="M354,88 L370,96 L354,104 L338,96 Z" fill="var(--cell)" opacity=".95"/></g>
  <g class="gwf" style="animation-delay:0.37s"><path d="M322,88 L338,96 L322,104 L306,96 Z" fill="var(--cell)" opacity=".95"/></g>
  <g class="gwf" style="animation-delay:0.43s"><path d="M466,96 L482,104 L466,112 L450,104 Z" fill="var(--cell)" opacity=".7"/></g>
  <g class="gwf" style="animation-delay:0.43s"><path d="M434,96 L450,104 L434,112 L418,104 Z" fill="var(--cell)" opacity=".7"/></g>
  <g class="gwf" style="animation-delay:0.43s"><path d="M402,96 L418,104 L402,112 L386,104 Z" fill="var(--cell)" opacity=".7"/></g>
  <g class="gwf" style="animation-delay:0.43s"><path d="M370,96 L386,104 L370,112 L354,104 Z" fill="var(--cell)" opacity=".7"/></g>
  <g class="gwf" style="animation-delay:0.43s"><path d="M338,96 L354,104 L338,112 L322,104 Z" fill="var(--cell)" opacity=".7"/></g>
  <g class="gwf" style="animation-delay:0.43s"><path d="M306,96 L322,104 L306,112 L290,104 Z" fill="var(--cell)" opacity=".7"/></g>
  <g class="gwf" style="animation-delay:0.48s"><path d="M482,104 L498,112 L482,120 L466,112 Z" fill="var(--cell)" opacity=".95"/></g>
  <g class="gwf" style="animation-delay:0.48s"><path d="M450,104 L466,112 L450,120 L434,112 Z" fill="var(--cell)" opacity=".95"/></g>
  <g class="gwf" style="animation-delay:0.48s"><path d="M418,104 L434,112 L418,120 L402,112 Z" fill="var(--cell)" opacity=".95"/></g>
  <g class="gwf" style="animation-delay:0.48s"><path d="M386,104 L402,112 L386,120 L370,112 Z" fill="var(--cell)" opacity=".95"/></g>
  <g class="gwf" style="animation-delay:0.48s"><path d="M354,104 L370,112 L354,120 L338,112 Z" fill="var(--cell)" opacity=".95"/></g>
  <g class="gwf" style="animation-delay:0.48s"><path d="M322,104 L338,112 L322,120 L306,112 Z" fill="var(--cell)" opacity=".95"/></g>
  <g class="gwf" style="animation-delay:0.54s"><path d="M498,112 L514,120 L498,128 L482,120 Z" fill="var(--cell)" opacity=".7"/></g>
  <g class="gwf" style="animation-delay:0.54s"><path d="M466,112 L482,120 L466,128 L450,120 Z" fill="var(--cell)" opacity=".7"/></g>
  <g class="gwf" style="animation-delay:0.54s"><path d="M434,112 L450,120 L434,128 L418,120 Z" fill="var(--cell)" opacity=".7"/></g>
  <g class="gwf" style="animation-delay:0.54s"><path d="M402,112 L418,120 L402,128 L386,120 Z" fill="var(--cell)" opacity=".7"/></g>
  <g class="gwf" style="animation-delay:0.54s"><path d="M370,112 L386,120 L370,128 L354,120 Z" fill="var(--cell)" opacity=".7"/></g>
  <g class="gwf" style="animation-delay:0.54s"><path d="M338,112 L354,120 L338,128 L322,120 Z" fill="var(--cell)" opacity=".7"/></g>
  <g class="gwf" style="animation-delay:0.59s"><path d="M514,120 L530,128 L514,136 L498,128 Z" fill="var(--cell)" opacity=".95"/></g>
  <g class="gwf" style="animation-delay:0.59s"><path d="M482,120 L498,128 L482,136 L466,128 Z" fill="var(--cell)" opacity=".95"/></g>
  <g class="gwf" style="animation-delay:0.59s"><path d="M450,120 L466,128 L450,136 L434,128 Z" fill="var(--cell)" opacity=".95"/></g>
  <g class="gwf" style="animation-delay:0.59s"><path d="M418,120 L434,128 L418,136 L402,128 Z" fill="var(--cell)" opacity=".95"/></g>
  <g class="gwf" style="animation-delay:0.59s"><path d="M386,120 L402,128 L386,136 L370,128 Z" fill="var(--cell)" opacity=".95"/></g>
  <g class="gwf" style="animation-delay:0.59s"><path d="M354,120 L370,128 L354,136 L338,128 Z" fill="var(--cell)" opacity=".95"/></g>
  <g class="gwf" style="animation-delay:0.65s"><path d="M530,128 L546,136 L530,144 L514,136 Z" fill="var(--cell)" opacity=".7"/></g>
  <g class="gwf" style="animation-delay:0.65s"><path d="M498,128 L514,136 L498,144 L482,136 Z" fill="var(--cell)" opacity=".7"/></g>
  <g class="gwf" style="animation-delay:0.65s"><path d="M466,128 L482,136 L466,144 L450,136 Z" fill="var(--cell)" opacity=".7"/></g>
  <g class="gwf" style="animation-delay:0.65s"><path d="M434,128 L450,136 L434,144 L418,136 Z" fill="var(--cell)" opacity=".7"/></g>
  <g class="gwf" style="animation-delay:0.65s"><path d="M402,128 L418,136 L402,144 L386,136 Z" fill="var(--cell)" opacity=".7"/></g>
  <g class="gwf" style="animation-delay:0.65s"><path d="M370,128 L386,136 L370,144 L354,136 Z" fill="var(--cell)" opacity=".7"/></g>
  <g class="gwf" style="animation-delay:0.70s"><path d="M546,136 L562,144 L546,152 L530,144 Z" fill="var(--cell)" opacity=".95"/></g>
  <g class="gwf" style="animation-delay:0.70s"><path d="M514,136 L530,144 L514,152 L498,144 Z" fill="var(--cell)" opacity=".95"/></g>
  <g class="gwf" style="animation-delay:0.70s"><path d="M482,136 L498,144 L482,152 L466,144 Z" fill="var(--cell)" opacity=".95"/></g>
  <g class="gwf" style="animation-delay:0.70s"><path d="M450,136 L466,144 L450,152 L434,144 Z" fill="var(--cell)" opacity=".95"/></g>
  <g class="gwf" style="animation-delay:0.70s"><path d="M418,136 L434,144 L418,152 L402,144 Z" fill="var(--cell)" opacity=".95"/></g>
  <g class="gwf" style="animation-delay:0.70s"><path d="M386,136 L402,144 L386,152 L370,144 Z" fill="var(--cell)" opacity=".95"/></g>
  <g class="gwf" style="animation-delay:0.76s"><path d="M562,144 L578,152 L562,160 L546,152 Z" fill="var(--cell)" opacity=".7"/></g>
  <g class="gwf" style="animation-delay:0.76s"><path d="M530,144 L546,152 L530,160 L514,152 Z" fill="var(--cell)" opacity=".7"/></g>
  <g class="gwf" style="animation-delay:0.76s"><path d="M498,144 L514,152 L498,160 L482,152 Z" fill="var(--cell)" opacity=".7"/></g>
  <g class="gwf" style="animation-delay:0.76s"><path d="M466,144 L482,152 L466,160 L450,152 Z" fill="var(--cell)" opacity=".7"/></g>
  <g class="gwf" style="animation-delay:0.76s"><path d="M434,144 L450,152 L434,160 L418,152 Z" fill="var(--cell)" opacity=".7"/></g>
  <g class="gwf" style="animation-delay:0.76s"><path d="M402,144 L418,152 L402,160 L386,152 Z" fill="var(--cell)" opacity=".7"/></g>
  <g class="gwf" style="animation-delay:0.81s"><path d="M578,152 L594,160 L578,168 L562,160 Z" fill="var(--cell)" opacity=".95"/></g>
  <g class="gwf" style="animation-delay:0.81s"><path d="M546,152 L562,160 L546,168 L530,160 Z" fill="var(--cell)" opacity=".95"/></g>
  <g class="gwf" style="animation-delay:0.81s"><path d="M514,152 L530,160 L514,168 L498,160 Z" fill="var(--cell)" opacity=".95"/></g>
  <g class="gwf" style="animation-delay:0.81s"><path d="M482,152 L498,160 L482,168 L466,160 Z" fill="var(--cell)" opacity=".95"/></g>
  <g class="gwf" style="animation-delay:0.81s"><path d="M450,152 L466,160 L450,168 L434,160 Z" fill="var(--cell)" opacity=".95"/></g>
  <g class="gwf" style="animation-delay:0.81s"><path d="M418,152 L434,160 L418,168 L402,160 Z" fill="var(--cell)" opacity=".95"/></g>
  <g class="gwf" style="animation-delay:0.86s"><path d="M594,160 L610,168 L594,176 L578,168 Z" fill="var(--cell)" opacity=".7"/></g>
  <g class="gwf" style="animation-delay:0.86s"><path d="M562,160 L578,168 L562,176 L546,168 Z" fill="var(--cell)" opacity=".7"/></g>
  <g class="gwf" style="animation-delay:0.86s"><path d="M530,160 L546,168 L530,176 L514,168 Z" fill="var(--cell)" opacity=".7"/></g>
  <g class="gwf" style="animation-delay:0.86s"><path d="M498,160 L514,168 L498,176 L482,168 Z" fill="var(--cell)" opacity=".7"/></g>
  <g class="gwf" style="animation-delay:0.86s"><path d="M466,160 L482,168 L466,176 L450,168 Z" fill="var(--cell)" opacity=".7"/></g>
  <g class="gwf" style="animation-delay:0.86s"><path d="M434,160 L450,168 L434,176 L418,168 Z" fill="var(--cell)" opacity=".7"/></g>
  <g class="gwf" style="animation-delay:0.92s"><path d="M578,168 L594,176 L578,184 L562,176 Z" fill="var(--cell)" opacity=".95"/></g>
  <g class="gwf" style="animation-delay:0.92s"><path d="M546,168 L562,176 L546,184 L530,176 Z" fill="var(--cell)" opacity=".95"/></g>
  <g class="gwf" style="animation-delay:0.92s"><path d="M514,168 L530,176 L514,184 L498,176 Z" fill="var(--cell)" opacity=".95"/></g>
  <g class="gwf" style="animation-delay:0.92s"><path d="M482,168 L498,176 L482,184 L466,176 Z" fill="var(--cell)" opacity=".95"/></g>
  <g class="gwf" style="animation-delay:0.92s"><path d="M450,168 L466,176 L450,184 L434,176 Z" fill="var(--cell)" opacity=".95"/></g>
  <g class="gwf" style="animation-delay:0.97s"><path d="M562,176 L578,184 L562,192 L546,184 Z" fill="var(--cell)" opacity=".7"/></g>
  <g class="gwf" style="animation-delay:0.97s"><path d="M530,176 L546,184 L530,192 L514,184 Z" fill="var(--cell)" opacity=".7"/></g>
  <g class="gwf" style="animation-delay:0.97s"><path d="M498,176 L514,184 L498,192 L482,184 Z" fill="var(--cell)" opacity=".7"/></g>
  <g class="gwf" style="animation-delay:0.97s"><path d="M466,176 L482,184 L466,192 L450,184 Z" fill="var(--cell)" opacity=".7"/></g>
  <g class="gwf" style="animation-delay:1.03s"><path d="M546,184 L562,192 L546,200 L530,192 Z" fill="var(--cell)" opacity=".95"/></g>
  <g class="gwf" style="animation-delay:1.03s"><path d="M514,184 L530,192 L514,200 L498,192 Z" fill="var(--cell)" opacity=".95"/></g>
  <g class="gwf" style="animation-delay:1.03s"><path d="M482,184 L498,192 L482,200 L466,192 Z" fill="var(--cell)" opacity=".95"/></g>
  <g class="gwf" style="animation-delay:1.08s"><path d="M530,192 L546,200 L530,208 L514,200 Z" fill="var(--cell)" opacity=".7"/></g>
  <g class="gwf" style="animation-delay:1.08s"><path d="M498,192 L514,200 L498,208 L482,200 Z" fill="var(--cell)" opacity=".7"/></g>
  <g class="gwf" style="animation-delay:1.14s"><path d="M514,200 L530,208 L514,216 L498,208 Z" fill="var(--cell)" opacity=".95"/></g>
  <g class="gw ob" style="animation-delay:0.51s"><path d="M402,69 L418,77 L418,88 L402,80 Z" fill="var(--l1)"/><path d="M434,69 L418,77 L418,88 L434,80 Z" fill="var(--r1)"/><path d="M418,61 L434,69 L418,77 L402,69 Z" fill="var(--t1)"/></g>
  <g class="gw ob" style="animation-delay:0.51s"><path d="M370,69 L386,77 L386,88 L370,80 Z" fill="var(--l1)"/><path d="M402,69 L386,77 L386,88 L402,80 Z" fill="var(--r1)"/><path d="M386,61 L402,69 L386,77 L370,69 Z" fill="var(--t1)"/></g>
  <g class="gw ob" style="animation-delay:0.51s"><path d="M338,69 L354,77 L354,88 L338,80 Z" fill="var(--l1)"/><path d="M370,69 L354,77 L354,88 L370,80 Z" fill="var(--r1)"/><path d="M354,61 L370,69 L354,77 L338,69 Z" fill="var(--t1)"/></g>
  <g class="gw ob" style="animation-delay:0.68s"><path d="M450,93 L466,101 L466,112 L450,104 Z" fill="var(--l1)"/><path d="M482,93 L466,101 L466,112 L482,104 Z" fill="var(--r1)"/><path d="M466,85 L482,93 L466,101 L450,93 Z" fill="var(--t1)"/></g>
  <g class="gw ob" style="animation-delay:0.68s"><path d="M418,82 L434,90 L434,112 L418,104 Z" fill="var(--l2)"/><path d="M450,82 L434,90 L434,112 L450,104 Z" fill="var(--r2)"/><path d="M434,74 L450,82 L434,90 L418,82 Z" fill="var(--t2)"/></g>
  <g class="gw ob" style="animation-delay:0.68s"><path d="M386,93 L402,101 L402,112 L386,104 Z" fill="var(--l1)"/><path d="M418,93 L402,101 L402,112 L418,104 Z" fill="var(--r1)"/><path d="M402,85 L418,93 L402,101 L386,93 Z" fill="var(--t1)"/></g>
  <g class="gw ob" style="animation-delay:0.68s"><path d="M354,93 L370,101 L370,112 L354,104 Z" fill="var(--l1)"/><path d="M386,93 L370,101 L370,112 L386,104 Z" fill="var(--r1)"/><path d="M370,85 L386,93 L370,101 L354,93 Z" fill="var(--t1)"/></g>
  <g class="gw ob" style="animation-delay:0.68s"><path d="M322,93 L338,101 L338,112 L322,104 Z" fill="var(--l1)"/><path d="M354,93 L338,101 L338,112 L354,104 Z" fill="var(--r1)"/><path d="M338,85 L354,93 L338,101 L322,93 Z" fill="var(--t1)"/></g>
  <g class="gw ob" style="animation-delay:0.68s"><path d="M290,93 L306,101 L306,112 L290,104 Z" fill="var(--l1)"/><path d="M322,93 L306,101 L306,112 L322,104 Z" fill="var(--r1)"/><path d="M306,85 L322,93 L306,101 L290,93 Z" fill="var(--t1)"/></g>
  <g class="gw ob" style="animation-delay:0.79s"><path d="M450,109 L466,117 L466,128 L450,120 Z" fill="var(--l1)"/><path d="M482,109 L466,117 L466,128 L482,120 Z" fill="var(--r1)"/><path d="M466,101 L482,109 L466,117 L450,109 Z" fill="var(--t1)"/></g>
  <g class="gw ob" style="animation-delay:0.79s"><path d="M386,109 L402,117 L402,128 L386,120 Z" fill="var(--l1)"/><path d="M418,109 L402,117 L402,128 L418,120 Z" fill="var(--r1)"/><path d="M402,101 L418,109 L402,117 L386,109 Z" fill="var(--t1)"/></g>
  <g class="gw ob" style="animation-delay:0.84s"><path d="M498,117 L514,125 L514,136 L498,128 Z" fill="var(--l1)"/><path d="M530,117 L514,125 L514,136 L530,128 Z" fill="var(--r1)"/><path d="M514,109 L530,117 L514,125 L498,117 Z" fill="var(--t1)"/></g>
  <g class="gw ob" style="animation-delay:0.84s"><path d="M338,117 L354,125 L354,136 L338,128 Z" fill="var(--l1)"/><path d="M370,117 L354,125 L354,136 L370,128 Z" fill="var(--r1)"/><path d="M354,109 L370,117 L354,125 L338,117 Z" fill="var(--t1)"/></g>
  <g class="gw ob" style="animation-delay:0.90s"><path d="M450,125 L466,133 L466,144 L450,136 Z" fill="var(--l1)"/><path d="M482,125 L466,133 L466,144 L482,136 Z" fill="var(--r1)"/><path d="M466,117 L482,125 L466,133 L450,125 Z" fill="var(--t1)"/></g>
  <g class="gw ob" style="animation-delay:0.90s"><path d="M418,114 L434,122 L434,144 L418,136 Z" fill="var(--l2)"/><path d="M450,114 L434,122 L434,144 L450,136 Z" fill="var(--r2)"/><path d="M434,106 L450,114 L434,122 L418,114 Z" fill="var(--t2)"/></g>
  <g class="gw ob" style="animation-delay:0.90s"><path d="M386,125 L402,133 L402,144 L386,136 Z" fill="var(--l1)"/><path d="M418,125 L402,133 L402,144 L418,136 Z" fill="var(--r1)"/><path d="M402,117 L418,125 L402,133 L386,125 Z" fill="var(--t1)"/></g>
  <g class="gw ob" style="animation-delay:0.95s"><path d="M530,122 L546,130 L546,152 L530,144 Z" fill="var(--l2)"/><path d="M562,122 L546,130 L546,152 L562,144 Z" fill="var(--r2)"/><path d="M546,114 L562,122 L546,130 L530,122 Z" fill="var(--t2)"/></g>
  <g class="gw ob" style="animation-delay:0.95s"><path d="M498,133 L514,141 L514,152 L498,144 Z" fill="var(--l1)"/><path d="M530,133 L514,141 L514,152 L530,144 Z" fill="var(--r1)"/><path d="M514,125 L530,133 L514,141 L498,133 Z" fill="var(--t1)"/></g>
  <g class="gw ob" style="animation-delay:0.95s"><path d="M466,133 L482,141 L482,152 L466,144 Z" fill="var(--l1)"/><path d="M498,133 L482,141 L482,152 L498,144 Z" fill="var(--r1)"/><path d="M482,125 L498,133 L482,141 L466,133 Z" fill="var(--t1)"/></g>
  <g class="gw ob" style="animation-delay:1.00s"><path d="M546,130 L562,138 L562,160 L546,152 Z" fill="var(--l2)"/><path d="M578,130 L562,138 L562,160 L578,152 Z" fill="var(--r2)"/><path d="M562,122 L578,130 L562,138 L546,130 Z" fill="var(--t2)"/></g>
  <g class="gw ob" style="animation-delay:1.00s"><path d="M514,130 L530,138 L530,160 L514,152 Z" fill="var(--l2)"/><path d="M546,130 L530,138 L530,160 L546,152 Z" fill="var(--r2)"/><path d="M530,122 L546,130 L530,138 L514,130 Z" fill="var(--t2)"/></g>
  <g class="gw ob" style="animation-delay:1.00s"><path d="M482,130 L498,138 L498,160 L482,152 Z" fill="var(--l2)"/><path d="M514,130 L498,138 L498,160 L514,152 Z" fill="var(--r2)"/><path d="M498,122 L514,130 L498,138 L482,130 Z" fill="var(--t2)"/></g>
  <g class="gw ob" style="animation-delay:1.00s"><path d="M450,141 L466,149 L466,160 L450,152 Z" fill="var(--l1)"/><path d="M482,141 L466,149 L466,160 L482,152 Z" fill="var(--r1)"/><path d="M466,133 L482,141 L466,149 L450,141 Z" fill="var(--t1)"/></g>
  <g class="gw ob" style="animation-delay:1.00s"><path d="M418,141 L434,149 L434,160 L418,152 Z" fill="var(--l1)"/><path d="M450,141 L434,149 L434,160 L450,152 Z" fill="var(--r1)"/><path d="M434,133 L450,141 L434,149 L418,141 Z" fill="var(--t1)"/></g>
  <g class="gw ob" style="animation-delay:1.00s"><path d="M386,141 L402,149 L402,160 L386,152 Z" fill="var(--l1)"/><path d="M418,141 L402,149 L402,160 L418,152 Z" fill="var(--r1)"/><path d="M402,133 L418,141 L402,149 L386,141 Z" fill="var(--t1)"/></g>
  <g class="gw ob" style="animation-delay:1.06s"><path d="M562,127 L578,135 L578,168 L562,160 Z" fill="var(--l3)"/><path d="M594,127 L578,135 L578,168 L594,160 Z" fill="var(--r3)"/><path d="M578,119 L594,127 L578,135 L562,127 Z" fill="var(--t3)"/></g>
  <g class="gw ob" style="animation-delay:1.06s"><path d="M530,127 L546,135 L546,168 L530,160 Z" fill="var(--l3)"/><path d="M562,127 L546,135 L546,168 L562,160 Z" fill="var(--r3)"/><path d="M546,119 L562,127 L546,135 L530,127 Z" fill="var(--t3)"/></g>
  <g class="gw ob" style="animation-delay:1.06s"><path d="M498,94 L514,102 L514,168 L498,160 Z" fill="var(--l4)"/><path d="M530,94 L514,102 L514,168 L530,160 Z" fill="var(--r4)"/><path class="shim" d="M514,86 L530,94 L514,102 L498,94 Z" fill="var(--t4)"/></g>
  <g class="gw ob" style="animation-delay:1.06s"><path d="M466,138 L482,146 L482,168 L466,160 Z" fill="var(--l2)"/><path d="M498,138 L482,146 L482,168 L498,160 Z" fill="var(--r2)"/><path d="M482,130 L498,138 L482,146 L466,138 Z" fill="var(--t2)"/></g>
  <g class="gw ob" style="animation-delay:1.06s"><path d="M434,138 L450,146 L450,168 L434,160 Z" fill="var(--l2)"/><path d="M466,138 L450,146 L450,168 L466,160 Z" fill="var(--r2)"/><path d="M450,130 L466,138 L450,146 L434,138 Z" fill="var(--t2)"/></g>
  <g class="gw ob" style="animation-delay:1.11s"><path d="M578,146 L594,154 L594,176 L578,168 Z" fill="var(--l2)"/><path d="M610,146 L594,154 L594,176 L610,168 Z" fill="var(--r2)"/><path d="M594,138 L610,146 L594,154 L578,146 Z" fill="var(--t2)"/></g>
  <g class="gw ob" style="animation-delay:1.11s"><path d="M546,124 L562,132 L562,176 L546,168 Z" fill="var(--l4)"/><path d="M578,124 L562,132 L562,176 L578,168 Z" fill="var(--r4)"/><path class="shim" d="M562,116 L578,124 L562,132 L546,124 Z" fill="var(--t4)"/></g>
  <g class="gw ob" style="animation-delay:1.11s"><path d="M514,102 L530,110 L530,176 L514,168 Z" fill="var(--l4)"/><path d="M546,102 L530,110 L530,176 L546,168 Z" fill="var(--r4)"/><path class="shim" d="M530,94 L546,102 L530,110 L514,102 Z" fill="var(--t4)"/></g>
  <g class="gw ob" style="animation-delay:1.11s"><path d="M482,124 L498,132 L498,176 L482,168 Z" fill="var(--l4)"/><path d="M514,124 L498,132 L498,176 L514,168 Z" fill="var(--r4)"/><path d="M498,116 L514,124 L498,132 L482,124 Z" fill="var(--t4)"/></g>
  <g class="gw ob" style="animation-delay:1.11s"><path d="M450,135 L466,143 L466,176 L450,168 Z" fill="var(--l3)"/><path d="M482,135 L466,143 L466,176 L482,168 Z" fill="var(--r3)"/><path d="M466,127 L482,135 L466,143 L450,135 Z" fill="var(--t3)"/></g>
  <g class="gw ob" style="animation-delay:1.11s"><path d="M418,157 L434,165 L434,176 L418,168 Z" fill="var(--l1)"/><path d="M450,157 L434,165 L434,176 L450,168 Z" fill="var(--r1)"/><path d="M434,149 L450,157 L434,165 L418,157 Z" fill="var(--t1)"/></g>
  <g class="gw ob" style="animation-delay:1.17s"><path d="M562,143 L578,151 L578,184 L562,176 Z" fill="var(--l3)"/><path d="M594,143 L578,151 L578,184 L594,176 Z" fill="var(--r3)"/><path d="M578,135 L594,143 L578,151 L562,143 Z" fill="var(--t3)"/></g>
  <g class="gw ob" style="animation-delay:1.17s"><path d="M530,121 L546,129 L546,184 L530,176 Z" fill="var(--l4)"/><path d="M562,121 L546,129 L546,184 L562,176 Z" fill="var(--r4)"/><path d="M546,113 L562,121 L546,129 L530,121 Z" fill="var(--t4)"/></g>
  <g class="gw ob" style="animation-delay:1.17s"><path d="M498,143 L514,151 L514,184 L498,176 Z" fill="var(--l3)"/><path d="M530,143 L514,151 L514,184 L530,176 Z" fill="var(--r3)"/><path d="M514,135 L530,143 L514,151 L498,143 Z" fill="var(--t3)"/></g>
  <g class="gw ob" style="animation-delay:1.17s"><path d="M466,143 L482,151 L482,184 L466,176 Z" fill="var(--l3)"/><path d="M498,143 L482,151 L482,184 L498,176 Z" fill="var(--r3)"/><path d="M482,135 L498,143 L482,151 L466,143 Z" fill="var(--t3)"/></g>
  <g class="gw ob" style="animation-delay:1.17s"><path d="M434,165 L450,173 L450,184 L434,176 Z" fill="var(--l1)"/><path d="M466,165 L450,173 L450,184 L466,176 Z" fill="var(--r1)"/><path d="M450,157 L466,165 L450,173 L434,165 Z" fill="var(--t1)"/></g>
  <g class="gw ob" style="animation-delay:1.23s"><path d="M546,140 L562,148 L562,192 L546,184 Z" fill="var(--l4)"/><path d="M578,140 L562,148 L562,192 L578,184 Z" fill="var(--r4)"/><path d="M562,132 L578,140 L562,148 L546,140 Z" fill="var(--t4)"/></g>
  <g class="gw ob" style="animation-delay:1.23s"><path d="M514,140 L530,148 L530,192 L514,184 Z" fill="var(--l4)"/><path d="M546,140 L530,148 L530,192 L546,184 Z" fill="var(--r4)"/><path d="M530,132 L546,140 L530,148 L514,140 Z" fill="var(--t4)"/></g>
  <g class="gw ob" style="animation-delay:1.23s"><path d="M482,140 L498,148 L498,192 L482,184 Z" fill="var(--l4)"/><path d="M514,140 L498,148 L498,192 L514,184 Z" fill="var(--r4)"/><path d="M498,132 L514,140 L498,148 L482,140 Z" fill="var(--t4)"/></g>
  <g class="gw ob" style="animation-delay:1.23s"><path d="M450,162 L466,170 L466,192 L450,184 Z" fill="var(--l2)"/><path d="M482,162 L466,170 L466,192 L482,184 Z" fill="var(--r2)"/><path d="M466,154 L482,162 L466,170 L450,162 Z" fill="var(--t2)"/></g>
  <g class="gw ob" style="animation-delay:1.28s"><path d="M530,170 L546,178 L546,200 L530,192 Z" fill="var(--l2)"/><path d="M562,170 L546,178 L546,200 L562,192 Z" fill="var(--r2)"/><path d="M546,162 L562,170 L546,178 L530,170 Z" fill="var(--t2)"/></g>
  <g class="gw ob" style="animation-delay:1.28s"><path d="M498,159 L514,167 L514,200 L498,192 Z" fill="var(--l3)"/><path d="M530,159 L514,167 L514,200 L530,192 Z" fill="var(--r3)"/><path d="M514,151 L530,159 L514,167 L498,159 Z" fill="var(--t3)"/></g>
  <g class="gw ob" style="animation-delay:1.28s"><path d="M466,170 L482,178 L482,200 L466,192 Z" fill="var(--l2)"/><path d="M498,170 L482,178 L482,200 L498,192 Z" fill="var(--r2)"/><path d="M482,162 L498,170 L482,178 L466,170 Z" fill="var(--t2)"/></g>
  <g class="gw ob" style="animation-delay:1.33s"><path d="M514,178 L530,186 L530,208 L514,200 Z" fill="var(--l2)"/><path d="M546,178 L530,186 L530,208 L546,200 Z" fill="var(--r2)"/><path d="M530,170 L546,178 L530,186 L514,178 Z" fill="var(--t2)"/></g>
  <g class="gw ob" style="animation-delay:1.33s"><path d="M482,178 L498,186 L498,208 L482,200 Z" fill="var(--l2)"/><path d="M514,178 L498,186 L498,208 L514,200 Z" fill="var(--r2)"/><path d="M498,170 L514,178 L498,186 L482,178 Z" fill="var(--t2)"/></g>
  <g class="gw ob" style="animation-delay:1.39s"><path d="M498,197 L514,205 L514,216 L498,208 Z" fill="var(--l1)"/><path d="M530,197 L514,205 L514,216 L530,208 Z" fill="var(--r1)"/><path d="M514,189 L530,197 L514,205 L498,197 Z" fill="var(--t1)"/></g>

  <g fill="var(--spark)">
    <use href="#sp4" x="656" y="60" class="tw1"/>
    <use href="#sp4" x="300" y="152" class="tw2"/>
  </g>

  <g class="fin" style="animation-delay:1.55s">
    <g transform="translate(488,121) scale(.75)"><g class="oc"><path fill="var(--yarn)" d="M8,0 H20 V4 H24 V8 H28 V20 H24 V24 H20 V28 H8 V24 H4 V20 H0 V8 H4 V4 H8 Z"/>
<g fill="var(--yarnd)"><rect x="6" y="6" width="16" height="3"/><rect x="4" y="13" width="20" height="3"/><rect x="8" y="20" width="14" height="3"/><rect x="24" y="11" width="7" height="3"/></g></g></g>
  </g>
  <g class="fin" style="animation-delay:1.4s">
    <g transform="translate(482,45) scale(.8333)"><g>
  <g class="tail tailo"><rect x="0" y="26" width="6" height="22" fill="var(--patch)"/><rect x="-5" y="19" width="8" height="8" fill="var(--cat)"/></g>
  <g class="gB"><rect x="72" y="52" width="6" height="14" fill="var(--catsh)"/><rect x="12" y="52" width="6" height="14" fill="var(--catsh)"/></g>
  <g class="gA"><rect x="24" y="52" width="6" height="14" fill="var(--cat)"/><g class="paw pawo"><rect x="60" y="52" width="6" height="14" fill="var(--cat)"/></g></g>
  <path fill="var(--cat)" d="M60,0 H66 V6 H72 V12 H78 V6 H84 V0 H90 V12 H96 V36 H84 V54 H6 V30 H54 V12 H60 Z"/>
  <rect x="6" y="48" width="78" height="6" fill="var(--catsh)"/>
  <g fill="var(--patch)">
    <rect x="6" y="30" width="30" height="12"/><rect x="6" y="42" width="24" height="6"/><rect x="12" y="48" width="12" height="6"/>
    <rect x="48" y="36" width="12" height="12"/>
    <rect x="54" y="12" width="16" height="6"/>
  </g>
  <g class="earF ob" fill="var(--patch)"><rect x="84" y="0" width="6" height="6"/><rect x="78" y="6" width="12" height="6"/></g>
  <rect x="64" y="7" width="4" height="4" fill="var(--pink)"/>
  <rect x="54" y="30" width="24" height="5" fill="var(--g3)"/>
  <rect x="63" y="35" width="5" height="5" fill="var(--spark)"/>
  <g class="blinkg oc"><rect x="78" y="18" width="6" height="6" fill="var(--patch)"/><rect x="82" y="19" width="2" height="2" fill="var(--cat)"/></g>
  <rect x="91" y="25" width="5" height="4" fill="var(--pink)"/>
  <rect x="78" y="27" width="8" height="3" fill="var(--blush)" opacity=".85"/>
  <rect x="96" y="21" width="10" height="2" fill="var(--muted)" opacity=".75"/>
  <rect x="96" y="26" width="10" height="2" fill="var(--muted)" opacity=".75"/>
</g></g>
  </g>
  <g transform="translate(540,22)"><g class="hg oc" opacity="0"><path fill="var(--heart)" d="M4,0 H8 V4 H12 V0 H16 V4 H20 V8 H16 V12 H12 V16 H8 V12 H4 V8 H0 V4 H4 Z"/></g></g>

  <g class="fin" style="animation-delay:1.9s">
    <text class="mono" x="28" y="282" font-size="12" fill="var(--muted)">@yunc-star</text>
    <text class="mono" x="872" y="282" font-size="12" text-anchor="end" fill="var(--muted)">contribution garden</text>
  </g>

</g>
</svg>